<svg version="1.2" xmlns="http://www.w3.org/2000/svg" viewBox="0 0 1792 1408" width="1792" height="1408">
	<title>envelope-svg</title>
	<style>
		.s0 { fill: #000000 } 
	</style>
	<path id="Layer" class="s0" d="m1792 454v794q0 66-47 113-47 47-113 47h-1472q-66 0-113-47-47-47-47-113v-794q44 49 101 87 362 246 497 345 57 42 92.5 65.5 35.5 23.5 94.5 48 59 24.5 110 24.5h2q51 0 110-24.5 59-24.5 94.5-48 35.5-23.5 92.5-65.5 170-123 498-345 57-39 100-87zm0-294q0 79-49 151-49 72-122 123-376 261-468 325-10 7-42.5 30.5-32.5 23.5-54 38-21.5 14.5-52 32.5-30.5 18-57.5 27-27 9-50 9h-2q-23 0-50-9-27-9-57.5-27-30.5-18-52-32.5-21.5-14.5-54-38-32.5-23.5-42.5-30.5-91-64-262-182.5-171-118.5-205-142.5-62-42-117-115.5-55-73.5-55-136.5 0-78 41.5-130 41.5-52 118.5-52h1472q65 0 112.5 47 47.5 47 47.5 113z"/>
</svg>