<svg width="44" height="45" viewBox="0 0 44 45" fill="none" xmlns="http://www.w3.org/2000/svg">
<g clip-path="url(#clip0_5_201)">
<path d="M22.6764 0.5C22.7004 0.538038 22.7635 0.523023 22.802 0.523524C24.0952 0.537538 25.492 0.736236 26.7531 1.01051C35.9155 3.004 42.9373 10.7913 43.9077 20.1436L43.9993 21.3448V23.6331C43.9613 23.6572 43.9763 23.7202 43.9758 23.7588C43.9663 24.6471 43.8297 25.6006 43.6715 26.4745C41.9209 36.1421 33.798 43.5791 23.9911 44.4314L23.0418 44.5H20.9829L20.0565 44.4314C9.1186 43.4625 0.396671 34.3764 0.0493552 23.3699L0.00381384 23.015C0.012822 22.6802 -0.00819708 22.3428 0.00381384 22.008C0.101403 19.2973 0.650902 16.5966 1.68634 14.0921C4.98284 6.11512 12.7149 0.772272 21.3727 0.5H22.6769H22.6764ZM39.767 26.012C40.7193 21.0906 39.5988 15.9349 36.6646 11.8969C30.8904 3.95195 19.7948 2.01201 11.6874 7.66617C3.41041 13.4379 1.42761 24.9289 7.39753 33.1356C12.0848 39.5786 20.4674 42.2257 28.0418 39.5586C28.5863 39.3669 29.4716 39.0711 29.8725 38.6667C30.8824 37.6471 30.4575 35.8754 29.1338 35.3769C28.1724 35.015 27.5739 35.4479 26.7086 35.7543C22.21 37.3478 17.222 36.5355 13.4585 33.6411C7.54717 29.0951 6.21146 20.6517 10.4863 14.4965C14.7612 8.34134 23.0828 6.61411 29.4466 10.5816C33.3947 13.043 35.936 17.3949 36.0606 22.0771H32.6059C32.5829 22.7252 32.5989 23.3614 32.5109 24.0065C32.4173 24.6902 32.2441 25.3654 32.0114 26.0125H39.7675L39.767 26.012ZM21.4593 12.9309C15.584 13.2422 11.3842 18.8729 12.6668 24.6166C14.0476 30.7993 20.9789 33.951 26.5895 30.9434C26.6786 30.8954 27.1735 30.5806 27.2135 30.5906L31.8623 35.2337C33.9332 37.1061 36.558 34.529 34.849 32.4525L30.0917 27.6907C30.8559 26.4424 31.4014 25.0435 31.5535 23.5751C32.1675 17.6446 27.4152 12.6151 21.4593 12.9309Z" fill="white"/>
<path d="M19.6283 17.7808C19.7924 17.7588 19.9421 17.7813 20.0887 17.8579L27.0165 21.6837C27.6561 21.976 27.7597 22.8333 27.1681 23.2393L20.0842 27.1602C19.6062 27.3944 19.0387 27.0851 18.9922 26.5506V18.4269C19.0392 18.1111 19.306 17.8243 19.6283 17.7808Z" fill="white"/>
</g>
<defs>
<clipPath id="clip0_5_201">
<rect width="44" height="44" fill="white" transform="translate(0 0.5)"/>
</clipPath>
</defs>
</svg>
